<?xml version="1.0" encoding="UTF-8"?>
<svg xmlns="http://www.w3.org/2000/svg" width="512" height="512" viewBox="0 0 512 512">
  <defs>
    <linearGradient id="bg" x1="0" y1="0" x2="1" y2="1">
      <stop offset="0%" stop-color="#ffb3d1"/>
      <stop offset="50%" stop-color="#c9a7e8"/>
      <stop offset="100%" stop-color="#a4c8f5"/>
    </linearGradient>
    <radialGradient id="glow" cx="0.5" cy="0.45" r="0.6">
      <stop offset="0%" stop-color="#ffffff" stop-opacity="0.55"/>
      <stop offset="60%" stop-color="#ffffff" stop-opacity="0"/>
    </radialGradient>
  </defs>
  <rect width="512" height="512" fill="url(#bg)"/>
  <rect width="512" height="512" fill="url(#glow)"/>
  <!-- Decorative bubbles -->
  <circle cx="80"  cy="100" r="26" fill="#ffffff" opacity="0.28"/>
  <circle cx="430" cy="90"  r="14" fill="#ffffff" opacity="0.35"/>
  <circle cx="60"  cy="420" r="18" fill="#ffffff" opacity="0.3"/>
  <circle cx="450" cy="440" r="30" fill="#ffffff" opacity="0.22"/>
  <!-- Sparkles -->
  <g fill="#fff7c6" opacity="0.9">
    <path d="M120 200 l6 18 l18 6 l-18 6 l-6 18 l-6 -18 l-18 -6 l18 -6 z"/>
    <path d="M400 320 l4 12 l12 4 l-12 4 l-4 12 l-4 -12 l-12 -4 l12 -4 z"/>
    <path d="M390 160 l3 9 l9 3 l-9 3 l-3 9 l-3 -9 l-9 -3 l9 -3 z"/>
  </g>
  <!-- Animal emoji, centered via text. Falls back system-font. -->
  <text x="256" y="328"
        font-family="Apple Color Emoji, Segoe UI Emoji, Noto Color Emoji, sans-serif"
        font-size="260"
        text-anchor="middle"
        dominant-baseline="alphabetic">🦊</text>
</svg>
